<?xml version="1.0" standalone="no"?>
<!DOCTYPE svg PUBLIC "-//W3C//DTD SVG 20010904//EN"
 "http://www.w3.org/TR/2001/REC-SVG-20010904/DTD/svg10.dtd">
<svg version="1.0" xmlns="http://www.w3.org/2000/svg"
 width="200.000000pt" height="200.000000pt" viewBox="0 0 200.000000 200.000000"
 preserveAspectRatio="xMidYMid meet">
<metadata>
Created by potrace 1.14, written by Peter Selinger 2001-2017
</metadata>
<g transform="translate(0.000000,200.000000) scale(0.100000,-0.100000)"
fill="#000000" stroke="none">
<path d="M385 1769 c-92 -15 -125 -117 -63 -194 35 -44 167 -204 183 -221 15
-17 79 -93 208 -249 l117 -140 -58 -59 c-31 -32 -64 -66 -72 -76 -8 -9 -46
-50 -85 -91 -340 -363 -324 -342 -325 -403 0 -30 7 -45 34 -72 19 -19 45 -34
58 -35 31 -1 1031 -1 1086 0 34 1 50 8 80 35 l37 34 3 162 c2 108 0 172 -8
191 -33 78 -150 82 -192 7 -7 -14 -12 -63 -13 -118 l-1 -95 -366 -1 c-254 0
-365 3 -361 10 4 6 30 36 59 66 28 30 69 73 89 95 21 22 81 87 135 145 137
146 140 151 140 202 0 44 -18 83 -61 128 -13 14 -100 118 -193 230 -93 113
-176 212 -183 221 -12 14 21 16 362 16 260 0 375 -4 376 -11 1 -6 2 -41 3 -78
3 -77 22 -113 70 -133 53 -22 114 3 136 54 8 19 10 77 8 171 l-3 142 -37 34
c-26 23 -48 34 -70 35 -167 4 -1064 3 -1093 -2z"/>
</g>
</svg>
